<mxfile host="Electron" agent="Mozilla/5.0 (X11; Linux x86_64) AppleWebKit/537.36 (KHTML, like Gecko) draw.io/24.7.17 Chrome/128.0.6613.36 Electron/32.0.1 Safari/537.36" version="24.7.17">
  <diagram name="Page-1" id="Myoa1AziwmCaIxM09eh1">
    <mxGraphModel dx="1389" dy="980" grid="0" gridSize="10" guides="1" tooltips="1" connect="1" arrows="1" fold="1" page="0" pageScale="1" pageWidth="850" pageHeight="1100" math="0" shadow="0">
      <root>
        <mxCell id="0" />
        <mxCell id="1" parent="0" />
        <mxCell id="yBT9QOENxVRAA928ACzU-1" value=":Interface" style="shape=umlLifeline;perimeter=lifelinePerimeter;whiteSpace=wrap;html=1;container=0;dropTarget=0;collapsible=0;recursiveResize=0;outlineConnect=0;portConstraint=eastwest;newEdgeStyle={&quot;edgeStyle&quot;:&quot;elbowEdgeStyle&quot;,&quot;elbow&quot;:&quot;vertical&quot;,&quot;curved&quot;:0,&quot;rounded&quot;:0};" vertex="1" parent="1">
          <mxGeometry x="-57" y="-68" width="100" height="362" as="geometry" />
        </mxCell>
        <mxCell id="yBT9QOENxVRAA928ACzU-2" value="" style="html=1;points=[];perimeter=orthogonalPerimeter;outlineConnect=0;targetShapes=umlLifeline;portConstraint=eastwest;newEdgeStyle={&quot;edgeStyle&quot;:&quot;elbowEdgeStyle&quot;,&quot;elbow&quot;:&quot;vertical&quot;,&quot;curved&quot;:0,&quot;rounded&quot;:0};" vertex="1" parent="yBT9QOENxVRAA928ACzU-1">
          <mxGeometry x="45" y="99" width="10" height="214" as="geometry" />
        </mxCell>
        <mxCell id="yBT9QOENxVRAA928ACzU-6" value="" style="endArrow=none;dashed=1;html=1;rounded=0;" edge="1" parent="1">
          <mxGeometry width="50" height="50" relative="1" as="geometry">
            <mxPoint x="-163" y="293" as="sourcePoint" />
            <mxPoint x="-163" y="-6" as="targetPoint" />
          </mxGeometry>
        </mxCell>
        <mxCell id="yBT9QOENxVRAA928ACzU-7" value="Usuário" style="shape=umlActor;verticalLabelPosition=bottom;verticalAlign=top;html=1;outlineConnect=0;" vertex="1" parent="1">
          <mxGeometry x="-178" y="-85" width="30" height="60" as="geometry" />
        </mxCell>
        <mxCell id="yBT9QOENxVRAA928ACzU-8" value="" style="rounded=0;whiteSpace=wrap;html=1;" vertex="1" parent="1">
          <mxGeometry x="-168" y="20" width="10" height="233" as="geometry" />
        </mxCell>
        <mxCell id="yBT9QOENxVRAA928ACzU-9" value="" style="endArrow=classic;html=1;rounded=0;fontSize=12;startSize=8;endSize=8;curved=1;" edge="1" parent="1" target="yBT9QOENxVRAA928ACzU-2">
          <mxGeometry width="50" height="50" relative="1" as="geometry">
            <mxPoint x="-158" y="38" as="sourcePoint" />
            <mxPoint x="-108" y="-12" as="targetPoint" />
          </mxGeometry>
        </mxCell>
        <mxCell id="yBT9QOENxVRAA928ACzU-10" value="seleciona opção &quot;personalizar&lt;div style=&quot;font-size: 10px;&quot;&gt;visualização das cotações&quot;&lt;/div&gt;" style="edgeLabel;html=1;align=center;verticalAlign=middle;resizable=0;points=[];fontSize=10;" vertex="1" connectable="0" parent="yBT9QOENxVRAA928ACzU-9">
          <mxGeometry x="0.5382" y="2" relative="1" as="geometry">
            <mxPoint x="-42" y="18" as="offset" />
          </mxGeometry>
        </mxCell>
        <mxCell id="yBT9QOENxVRAA928ACzU-11" value="[se logado e na tela de configurações]" style="text;html=1;align=center;verticalAlign=middle;whiteSpace=wrap;rounded=0;fontSize=10;" vertex="1" parent="1">
          <mxGeometry x="-138" y="8" width="100" height="30" as="geometry" />
        </mxCell>
        <mxCell id="yBT9QOENxVRAA928ACzU-12" value="" style="endArrow=open;html=1;rounded=0;fontSize=12;startSize=8;endSize=8;curved=1;endFill=0;dashed=1;" edge="1" parent="1">
          <mxGeometry width="50" height="50" relative="1" as="geometry">
            <mxPoint x="-12" y="239" as="sourcePoint" />
            <mxPoint x="-156" y="239" as="targetPoint" />
          </mxGeometry>
        </mxCell>
        <mxCell id="yBT9QOENxVRAA928ACzU-13" value="atualiza exibição das&lt;div&gt;cotações conforme&lt;/div&gt;&lt;div&gt;personalização&lt;/div&gt;" style="edgeLabel;html=1;align=center;verticalAlign=middle;resizable=0;points=[];fontSize=10;" vertex="1" connectable="0" parent="yBT9QOENxVRAA928ACzU-12">
          <mxGeometry x="0.0815" relative="1" as="geometry">
            <mxPoint x="6" y="22" as="offset" />
          </mxGeometry>
        </mxCell>
        <mxCell id="yBT9QOENxVRAA928ACzU-14" value="UC-24&lt;div&gt;Personalizar visualização das cotações&lt;/div&gt;" style="strokeWidth=2;html=1;shape=mxgraph.flowchart.start_1;whiteSpace=wrap;" vertex="1" parent="1">
          <mxGeometry x="-71" y="-175" width="134" height="83" as="geometry" />
        </mxCell>
        <mxCell id="yBT9QOENxVRAA928ACzU-20" value=":Usuario" style="shape=umlLifeline;perimeter=lifelinePerimeter;whiteSpace=wrap;html=1;container=1;dropTarget=0;collapsible=0;recursiveResize=0;outlineConnect=0;portConstraint=eastwest;newEdgeStyle={&quot;curved&quot;:0,&quot;rounded&quot;:0};" vertex="1" parent="1">
          <mxGeometry x="70" y="-68" width="110" height="362" as="geometry" />
        </mxCell>
        <mxCell id="yBT9QOENxVRAA928ACzU-5" value="&lt;span style=&quot;color: rgba(0, 0, 0, 0); font-family: monospace; font-size: 0px; text-align: start;&quot;&gt;%3CmxGraphModel%3E%3Croot%3E%3CmxCell%20id%3D%220%22%2F%3E%3CmxCell%20id%3D%221%22%20parent%3D%220%22%2F%3E%3CmxCell%20id%3D%222%22%20value%3D%22%26lt%3Bfont%20style%3D%26quot%3Bfont-size%3A%209px%3B%26quot%3B%26gt%3B%5Bse%20n%C3%A3o%20houve%26lt%3B%2Ffont%26gt%3B%26lt%3Bdiv%20style%3D%26quot%3Bfont-size%3A%209px%3B%26quot%3B%26gt%3B%26lt%3Bfont%20style%3D%26quot%3Bfont-size%3A%209px%3B%26quot%3B%26gt%3Berro%5D%26lt%3B%2Ffont%26gt%3B%26lt%3B%2Fdiv%26gt%3B%22%20style%3D%22text%3Bhtml%3D1%3Balign%3Dcenter%3BverticalAlign%3Dmiddle%3Bresizable%3D0%3Bpoints%3D%5B%5D%3Bautosize%3D1%3BstrokeColor%3Dnone%3BfillColor%3Dnone%3BfontSize%3D9%3B%22%20vertex%3D%221%22%20parent%3D%221%22%3E%3CmxGeometry%20x%3D%22438%22%20y%3D%22306%22%20width%3D%2275%22%20height%3D%2234%22%20as%3D%22geometry%22%2F%3E%3C%2FmxCell%3E%3C%2Froot%3E%3C%2FmxGraphModel%3E&lt;/span&gt;" style="html=1;points=[];perimeter=orthogonalPerimeter;outlineConnect=0;targetShapes=umlLifeline;portConstraint=eastwest;newEdgeStyle={&quot;edgeStyle&quot;:&quot;elbowEdgeStyle&quot;,&quot;elbow&quot;:&quot;vertical&quot;,&quot;curved&quot;:0,&quot;rounded&quot;:0};" vertex="1" parent="yBT9QOENxVRAA928ACzU-20">
          <mxGeometry x="-76" y="272" width="10" height="18" as="geometry" />
        </mxCell>
        <mxCell id="yBT9QOENxVRAA928ACzU-3" value="" style="endArrow=classic;html=1;rounded=0;fontSize=12;startSize=8;endSize=8;curved=1;" edge="1" parent="yBT9QOENxVRAA928ACzU-20">
          <mxGeometry width="50" height="50" relative="1" as="geometry">
            <mxPoint x="-71.5" y="260" as="sourcePoint" />
            <mxPoint x="-65.5" y="282" as="targetPoint" />
            <Array as="points">
              <mxPoint x="-29.5" y="265" />
            </Array>
          </mxGeometry>
        </mxCell>
        <mxCell id="yBT9QOENxVRAA928ACzU-4" value="atualizarCotacoes()" style="edgeLabel;html=1;align=center;verticalAlign=middle;resizable=0;points=[];fontSize=10;" vertex="1" connectable="0" parent="yBT9QOENxVRAA928ACzU-3">
          <mxGeometry x="0.4751" y="-4" relative="1" as="geometry">
            <mxPoint x="48" y="-1" as="offset" />
          </mxGeometry>
        </mxCell>
        <mxCell id="yBT9QOENxVRAA928ACzU-34" value="" style="endArrow=classic;html=1;rounded=0;fontSize=12;startSize=8;endSize=8;curved=1;entryX=0.976;entryY=0.319;entryDx=0;entryDy=0;entryPerimeter=0;" edge="1" parent="1" target="yBT9QOENxVRAA928ACzU-8">
          <mxGeometry width="50" height="50" relative="1" as="geometry">
            <mxPoint x="-12" y="94" as="sourcePoint" />
            <mxPoint x="38" y="44" as="targetPoint" />
          </mxGeometry>
        </mxCell>
        <mxCell id="yBT9QOENxVRAA928ACzU-35" value="solicita preferências&lt;div&gt;de visualização&lt;/div&gt;&lt;div&gt;(layout, tipos de gráficos,&lt;/div&gt;&lt;div&gt;informações a exibir, etc)&lt;/div&gt;" style="edgeLabel;html=1;align=center;verticalAlign=middle;resizable=0;points=[];fontSize=10;" vertex="1" connectable="0" parent="1">
          <mxGeometry x="-87.99904761904759" y="121" as="geometry" />
        </mxCell>
        <mxCell id="yBT9QOENxVRAA928ACzU-36" value="" style="endArrow=open;html=1;rounded=0;fontSize=12;startSize=8;endSize=8;curved=1;endFill=0;dashed=1;" edge="1" parent="1" target="yBT9QOENxVRAA928ACzU-2">
          <mxGeometry width="50" height="50" relative="1" as="geometry">
            <mxPoint x="-158" y="155" as="sourcePoint" />
            <mxPoint x="-108" y="105" as="targetPoint" />
          </mxGeometry>
        </mxCell>
        <mxCell id="yBT9QOENxVRAA928ACzU-37" value="escolhe preferências&lt;div&gt;ou &quot;reseta&quot; preferências&lt;/div&gt;" style="edgeLabel;html=1;align=center;verticalAlign=middle;resizable=0;points=[];fontSize=10;" vertex="1" connectable="0" parent="yBT9QOENxVRAA928ACzU-36">
          <mxGeometry x="-0.077" relative="1" as="geometry">
            <mxPoint x="3" y="15" as="offset" />
          </mxGeometry>
        </mxCell>
        <mxCell id="yBT9QOENxVRAA928ACzU-40" value="" style="endArrow=classic;html=1;rounded=0;fontSize=12;startSize=8;endSize=8;curved=1;" edge="1" parent="1" target="yBT9QOENxVRAA928ACzU-21">
          <mxGeometry width="50" height="50" relative="1" as="geometry">
            <mxPoint x="-1" y="179" as="sourcePoint" />
            <mxPoint x="143" y="179" as="targetPoint" />
          </mxGeometry>
        </mxCell>
        <mxCell id="yBT9QOENxVRAA928ACzU-41" value="salvarPreferencias()" style="edgeLabel;html=1;align=center;verticalAlign=middle;resizable=0;points=[];fontSize=10;" vertex="1" connectable="0" parent="yBT9QOENxVRAA928ACzU-40">
          <mxGeometry x="-0.0423" y="1" relative="1" as="geometry">
            <mxPoint x="1" y="-8" as="offset" />
          </mxGeometry>
        </mxCell>
        <mxCell id="yBT9QOENxVRAA928ACzU-21" value="" style="html=1;points=[[0,0,0,0,5],[0,1,0,0,-5],[1,0,0,0,5],[1,1,0,0,-5]];perimeter=orthogonalPerimeter;outlineConnect=0;targetShapes=umlLifeline;portConstraint=eastwest;newEdgeStyle={&quot;curved&quot;:0,&quot;rounded&quot;:0};" vertex="1" parent="1">
          <mxGeometry x="120.5" y="170" width="9" height="17" as="geometry" />
        </mxCell>
      </root>
    </mxGraphModel>
  </diagram>
</mxfile>
